<?xml version="1.0" standalone="no"?>
<!DOCTYPE svg PUBLIC "-//W3C//DTD SVG 20010904//EN"
 "http://www.w3.org/TR/2001/REC-SVG-20010904/DTD/svg10.dtd">
<svg version="1.0" xmlns="http://www.w3.org/2000/svg"
 width="180.000000pt" height="133.000000pt" viewBox="0 0 180.000000 133.000000"
 preserveAspectRatio="xMidYMid meet">

<g transform="translate(0.000000,133.000000) scale(0.100000,-0.100000)"
fill="#000000" stroke="none">
<path d="M1390 1321 c-8 -4 -44 -14 -80 -20 -211 -39 -443 -126 -615 -230 -55
-34 -70 -38 -180 -48 -179 -18 -306 -66 -397 -151 -64 -60 -88 -107 -88 -173
0 -95 64 -179 178 -233 53 -25 62 -34 77 -73 10 -24 39 -66 66 -93 94 -94 223
-132 444 -132 301 1 513 58 760 202 136 80 203 173 212 292 13 170 -124 317
-354 380 -130 36 -435 27 -523 -15 -27 -13 -140 -10 -140 3 0 14 197 106 306
143 133 46 312 83 327 68 6 -6 17 -11 23 -11 19 0 44 29 44 50 0 18 -25 50
-38 50 -4 0 -14 -4 -22 -9z m-27 -326 c144 -30 285 -125 328 -220 26 -57 24
-129 -6 -190 -24 -50 -48 -85 -57 -85 -3 0 -8 26 -10 58 -6 77 -31 126 -103
198 -105 105 -274 185 -487 229 -16 3 -28 10 -28 15 0 16 284 12 363 -5z
m-438 -51 c127 -18 265 -55 350 -93 170 -77 295 -208 295 -309 0 -53 -47 -126
-92 -141 -131 -43 -412 -63 -593 -42 -117 14 -414 72 -500 98 -56 18 -60 21
-63 52 -10 105 96 274 258 408 l65 54 90 -6 c50 -4 135 -13 190 -21z m-467
-61 c-116 -120 -173 -218 -194 -335 -3 -21 -9 -38 -12 -38 -3 0 -26 13 -52 30
-131 84 -150 180 -55 275 73 73 241 143 349 144 l39 1 -75 -77z m232 -553
c169 -29 281 -40 410 -40 69 0 110 -4 105 -9 -6 -5 -68 -19 -140 -32 -260 -44
-508 -24 -625 51 -43 27 -90 79 -90 98 0 4 50 -5 112 -20 62 -16 164 -37 228
-48z"/>
<path d="M852 783 c-13 -3 -38 -20 -57 -39 -59 -58 -59 -140 0 -199 89 -88
238 -26 238 99 0 98 -79 158 -181 139z"/>
</g>
</svg>
